<svg width="410" height="213" viewBox="0 0 410 213" fill="none" xmlns="http://www.w3.org/2000/svg">
<path fill-rule="evenodd" clip-rule="evenodd" d="M318.779 21.9402C329.195 13.8199 342.02 9.40105 355.228 9.38171V9.41655C362.318 9.31208 369.358 10.6184 375.939 13.2594C382.52 15.9005 388.51 19.8236 393.561 24.8006C398.612 29.7776 402.623 35.7092 405.361 42.2504C408.098 48.7916 409.508 55.8118 409.508 62.9028C409.508 69.9938 408.098 77.014 405.361 83.5552C402.623 90.0964 398.612 96.0279 393.561 101.005C388.51 105.982 382.52 109.905 375.939 112.546C369.358 115.187 362.318 116.493 355.228 116.389L287.303 116.552L251.437 165.666L116.203 212.482L157.016 165.237C133.325 163.078 110.583 154.883 90.9608 141.434H45.1089L0 101.457H55.733C60.3774 44.8418 115.971 0 183.594 0C215.303 0 247.176 9.85777 271.06 27.0421C281.524 34.4038 290.554 43.6156 297.707 54.2235C300.948 41.4197 308.363 30.0606 318.779 21.9402ZM99.8549 46.0261L155.251 101.48H176.557L111.745 36.6096C107.568 39.4691 103.595 42.6156 99.8549 46.0261ZM157.631 17.5791L241.533 101.48H262.827L176.615 15.2569C170.24 15.5807 163.896 16.3567 157.631 17.5791ZM64.7896 116.517H39.7213L50.8215 126.34H73.2656C70.2613 123.224 67.4316 119.945 64.7896 116.517ZM199.06 116.517H84.7954L84.7605 116.528C105.556 137.44 136.546 150.2 169.417 150.827L199.06 116.517ZM164.25 179.867L242.044 152.929L268.644 116.54H218.961L164.25 179.867ZM311.025 101.225H357.225L357.272 101.237C367.254 100.688 376.63 96.2698 383.407 88.9203C390.185 81.5708 393.831 71.8689 393.571 61.8746C393.311 51.8804 389.166 42.3811 382.015 35.3938C374.865 28.4066 365.272 24.4818 355.274 24.4528C343.542 24.4651 332.295 29.1311 323.999 37.4268C315.703 45.7226 311.037 56.9705 311.025 68.7025V99.5994V101.225ZM362.845 48.3921C368.116 48.9136 371.966 53.6094 371.445 58.8805C370.923 64.1515 366.227 68.0018 360.956 67.4804C355.685 66.9589 351.835 62.2631 352.356 56.992C352.878 51.721 357.574 47.8706 362.845 48.3921Z" fill="white"/>
</svg>
